<svg width="36" height="36" viewBox="0 0 36 36" fill="none" xmlns="http://www.w3.org/2000/svg">
<g clip-path="url(#clip0_4916_1848)">
<path d="M29.782 4.31934H6.2182C4.7719 4.31934 3.6001 5.49114 3.6001 6.93744V29.6282C3.6001 31.0745 4.7719 32.2463 6.2182 32.2463H25.4179L32.4001 25.2641V6.93744C32.4001 5.49114 31.2283 4.31934 29.782 4.31934Z" fill="#E5E9EE"/>
<path d="M9.90015 17.5078C9.90015 17.1001 10.1098 16.7203 10.4563 16.5043L13.1644 14.8105C13.4407 14.6377 13.7602 14.5459 14.086 14.5459C15.0454 14.5459 15.8239 15.3235 15.8239 16.2838V26.3224C15.8239 27.1135 15.1822 27.7552 14.3911 27.7552C13.6 27.7552 12.9583 27.1135 12.9583 26.3224V17.7436L11.7073 18.5158C10.9189 19.0027 9.90195 18.4357 9.90195 17.5087L9.90015 17.5078Z" fill="#EF4452"/>
<path d="M17.3118 15.8826C17.3118 15.2409 17.832 14.7207 18.4737 14.7207H25.0554C25.6323 14.7207 26.1003 15.1887 26.1003 15.7656C26.1003 16.437 25.9626 17.1003 25.6944 17.7159L21.7128 26.8761C21.4806 27.4098 20.9541 27.7554 20.3718 27.7554C19.3116 27.7554 18.6042 26.6637 19.0362 25.6962L22.9035 17.0454H18.4746C17.8329 17.0454 17.3127 16.5252 17.3127 15.8835L17.3118 15.8826Z" fill="#EF4452"/>
<path d="M6.2182 4.31934H29.782C31.2274 4.31934 32.4001 5.49294 32.4001 6.93744V11.1548H3.6001V6.93744C3.6001 5.49204 4.7737 4.31934 6.2182 4.31934Z" fill="#FDAEB3"/>
<path d="M9.27269 6.5009C8.67059 6.5009 8.18188 6.0131 8.18188 5.4101V3.2285C8.18188 2.6255 8.66969 2.1377 9.27269 2.1377C9.87569 2.1377 10.3635 2.6255 10.3635 3.2285V5.4101C10.3635 6.0131 9.87569 6.5009 9.27269 6.5009Z" fill="#4B596A"/>
<path d="M26.7275 6.5009C26.1254 6.5009 25.6367 6.0131 25.6367 5.4101V3.2285C25.6367 2.6255 26.1245 2.1377 26.7275 2.1377C27.3305 2.1377 27.8183 2.6255 27.8183 3.2285V5.4101C27.8183 6.0131 27.3305 6.5009 26.7275 6.5009Z" fill="#4B596A"/>
<path fill-rule="evenodd" clip-rule="evenodd" d="M27.164 25.2651H32.4002L25.418 32.2473V27.0111C25.418 26.0472 26.1992 25.266 27.1631 25.266L27.164 25.2651Z" fill="#C0C7D1"/>
</g>
<defs>
<clipPath id="clip0_4916_1848">
<rect width="36" height="36" fill="white"/>
</clipPath>
</defs>
</svg>
