<svg viewBox="0 0 24 21" fill="none" xmlns="http://www.w3.org/2000/svg">
<path d="M2.82947 10.2394C2.33003 9.75189 1.93432 9.17162 1.66541 8.53237C1.3965 7.89312 1.25976 7.20767 1.26316 6.51597C1.26316 5.117 1.82876 3.77533 2.83553 2.78611C3.84231 1.79689 5.20779 1.24116 6.63158 1.24116C8.62737 1.24116 10.3705 2.30853 11.2926 3.89718H12.7074C13.1761 3.08927 13.8544 2.41786 14.6732 1.9513C15.492 1.48475 16.4219 1.23971 17.3684 1.24116C18.7922 1.24116 20.1577 1.79689 21.1645 2.78611C22.1712 3.77533 22.7368 5.117 22.7368 6.51597C22.7368 7.9681 22.1053 9.30852 21.1705 10.2394L12 19.2376L2.82947 10.2394ZM22.0547 11.1206C23.2547 9.92909 24 8.31562 24 6.51597C24 4.78784 23.3013 3.13048 22.0577 1.9085C20.814 0.686522 19.1272 2.2405e-05 17.3684 2.2405e-05C15.1579 2.2405e-05 13.2 1.05499 12 2.69328C11.3875 1.85738 10.581 1.17701 9.64734 0.70862C8.71371 0.24023 7.67987 -0.00268619 6.63158 2.2405e-05C4.87277 2.2405e-05 3.18601 0.686522 1.94234 1.9085C0.698682 3.13048 0 4.78784 0 6.51597C0 8.31562 0.745263 9.92909 1.94526 11.1206L12 21L22.0547 11.1206Z" fill="black"/>
</svg>
