<svg viewBox="0 0 24 21" fill="none" xmlns="http://www.w3.org/2000/svg">
<path d="M2.82947 10.2394C2.33003 9.75189 1.93432 9.17162 1.66541 8.53237C1.3965 7.89312 1.25976 7.20767 1.26316 6.51597C1.26316 5.117 1.82876 3.77533 2.83553 2.78611C3.84231 1.79689 5.20779 1.24116 6.63158 1.24116C8.62737 1.24116 10.3705 2.30853 11.2926 3.89718H12.7074C13.1761 3.08927 13.8544 2.41786 14.6732 1.9513C15.492 1.48475 16.4219 1.23971 17.3684 1.24116C18.7922 1.24116 20.1577 1.79689 21.1645 2.78611C22.1712 3.77533 22.7368 5.117 22.7368 6.51597C22.7368 7.9681 22.1053 9.30852 21.1705 10.2394L12 19.2376L2.82947 10.2394ZM22.0547 11.1206C23.2547 9.92909 24 8.31562 24 6.51597C24 4.78784 23.3013 3.13048 22.0577 1.9085C20.814 0.686522 19.1272 2.2405e-05 17.3684 2.2405e-05C15.1579 2.2405e-05 13.2 1.05499 12 2.69328C11.3875 1.85738 10.581 1.17701 9.64734 0.70862C8.71371 0.24023 7.67987 -0.00268619 6.63158 2.2405e-05C4.87277 2.2405e-05 3.18601 0.686522 1.94234 1.9085C0.698682 3.13048 0 4.78784 0 6.51597C0 8.31562 0.745263 9.92909 1.94526 11.1206L12 21L22.0547 11.1206Z" fill="#FF383C"/>
<path d="M14.2237 6.04007C14.5706 5.82893 15.3836 5.2741 15.6147 5.08274C15.8159 4.91601 16.3589 4.89335 16.9075 4.84874C17.1177 4.83165 17.4683 4.84466 17.6087 4.81723C17.7492 4.7898 17.6695 4.73495 17.5976 4.69423C17.468 4.62084 17.3374 4.57121 17.2737 4.50775C17.2512 4.48533 17.3359 4.44517 17.4027 4.43067C17.9898 4.30305 18.847 5.01693 19.0556 5.25742C19.2791 5.51496 19.3802 5.74293 19.4997 6.13997C19.5851 6.42377 19.6208 6.9538 19.4448 7.5123C19.2602 8.09796 18.8787 8.2404 18.4929 8.64304C18.1133 9.03914 17.7721 9.42519 17.4924 9.62568C17.2064 9.83076 16.8828 9.98643 16.6408 10.1804C16.3517 10.4121 15.7143 11.0762 14.9281 11.8638C14.4059 12.3868 13.9995 12.8052 13.7043 13.0462C13.3539 13.3323 12.5572 14.1075 12.1508 14.51C12.0209 14.6385 11.8978 14.7586 11.788 14.8173C11.2987 15.0792 10.5867 14.1434 10.2835 13.7711C9.96147 13.3758 9.75129 12.9454 9.44835 12.5412C9.17248 12.1732 8.86206 11.9176 8.51753 11.6492C8.11306 11.3341 7.57292 10.8065 7.02543 10.268C6.56143 9.8116 6.35165 9.50606 5.26375 8.28111C4.66396 7.60576 4.50224 7.25485 4.35685 6.85213C4.18627 6.37966 4.29093 5.90443 4.49815 5.52424C4.70195 5.15032 4.95424 4.9214 5.08214 4.83963C5.3409 4.67421 6.34185 4.64518 6.99309 4.70474C7.40305 4.74223 7.98481 5.30946 8.49199 5.89766C8.72391 6.16663 8.98402 6.44209 9.2622 6.79465C9.36023 6.9189 9.99428 7.88573 10.9054 9.31604C11.2304 9.82625 11.2923 9.88854 11.3102 9.87597C11.3959 9.81585 10.8762 8.75151 10.2089 7.17346C9.61438 5.76751 9.42776 5.30153 9.11243 4.79532C8.99837 4.66072 8.88206 4.56048 8.76053 4.44046C8.70396 4.37415 8.65777 4.29689 8.61017 4.21729" stroke="#FF383C" stroke-width="7" stroke-linecap="round"/>
<path d="M12.2305 18.4914C12.3525 18.3126 12.7094 17.809 12.8054 17.5454C12.8228 17.4976 12.7307 17.4662 12.6679 17.4504C12.6052 17.4345 12.5409 17.4345 12.4944 17.4626C12.448 17.4908 12.4213 17.547 12.4202 17.6047C12.4192 17.6624 12.4446 17.72 12.4845 17.7318C12.5244 17.7435 12.578 17.7079 12.6872 17.5167" stroke="#FF383C" stroke-width="3" stroke-linecap="round"/>
</svg>
