<svg width="12" height="22" viewBox="0 0 12 22" fill="none" xmlns="http://www.w3.org/2000/svg">
<path d="M11.9375 10.8135C11.9375 11.1187 11.8276 11.3994 11.5957 11.6191L1.91553 21.0918C1.70801 21.2993 1.43945 21.4092 1.12207 21.4092C0.487305 21.4092 -0.00097612 20.9331 -0.000976064 20.2983C-0.000976037 19.9932 0.133301 19.7124 0.328614 19.5049L9.21533 10.8135L0.328615 2.12207C0.133303 1.91455 -0.000974433 1.64599 -0.000974406 1.32861C-0.00097435 0.693846 0.487307 0.217772 1.12207 0.217772C1.43946 0.217772 1.70801 0.327636 1.91553 0.547362L11.5957 10.0078C11.8276 10.2397 11.9375 10.5083 11.9375 10.8135Z" fill="#CFCFCF"/>
</svg>
