<svg width="18" height="17" viewBox="0 0 18 17" fill="none" xmlns="http://www.w3.org/2000/svg">
<path d="M3.42188 16.4375C3.10156 16.1953 3.03125 15.7969 3.22656 15.2266L4.85938 10.3672L0.6875 7.36719C0.203125 7.02344 0 6.66406 0.132812 6.27344C0.257812 5.89844 0.625 5.71094 1.22656 5.71875L6.34375 5.75L7.89844 0.867188C8.08594 0.289062 8.36719 0 8.76562 0C9.17188 0 9.45312 0.289062 9.64062 0.867188L11.1953 5.75L16.3125 5.71875C16.9141 5.71094 17.2812 5.89844 17.4062 6.27344C17.5312 6.66406 17.3359 7.02344 16.8516 7.36719L12.6797 10.3672L14.3125 15.2266C14.5078 15.7969 14.4375 16.1953 14.1172 16.4375C13.7891 16.6875 13.3906 16.6016 12.9062 16.25L8.76562 13.2109L4.63281 16.25C4.14844 16.6016 3.74219 16.6875 3.42188 16.4375ZM4.54688 14.8906C4.5625 14.9141 4.58594 14.8984 4.61719 14.875L8.375 12.0078C8.625 11.8125 8.91406 11.8125 9.16406 12.0078L12.9219 14.875C12.9531 14.8984 12.9766 14.9141 12.9922 14.8906C13.0078 14.875 13 14.8672 12.9922 14.8203L11.4375 10.3516C11.3281 10.0469 11.3906 9.80469 11.6641 9.61719L15.5547 6.92969C15.5859 6.90625 15.6016 6.89062 15.5938 6.86719C15.5859 6.84375 15.5703 6.84375 15.5234 6.84375L10.7969 6.92969C10.4766 6.9375 10.2734 6.80469 10.1719 6.48438L8.8125 1.96094C8.80469 1.91406 8.78906 1.89844 8.76562 1.89844C8.75 1.89844 8.73438 1.91406 8.72656 1.96094L7.36719 6.48438C7.26562 6.80469 7.0625 6.9375 6.74219 6.92969L2.01562 6.84375C1.96875 6.84375 1.95312 6.84375 1.94531 6.86719C1.9375 6.89062 1.94531 6.90625 1.98438 6.92969L5.875 9.61719C6.14844 9.80469 6.21094 10.0469 6.10156 10.3516L4.54688 14.8203C4.53906 14.8672 4.53125 14.875 4.54688 14.8906Z" fill="#474747"/>
</svg>
