<svg width="22" height="21" viewBox="0 0 22 21" fill="none" xmlns="http://www.w3.org/2000/svg">
<path d="M4.27734 20.5469C3.87695 20.2441 3.78906 19.7461 4.0332 19.0332L6.07422 12.959L0.859375 9.20898C0.253906 8.7793 0 8.33008 0.166016 7.8418C0.322266 7.37305 0.78125 7.13867 1.5332 7.14844L7.92969 7.1875L9.87305 1.08398C10.1074 0.361328 10.459 0 10.957 0C11.4648 0 11.8164 0.361328 12.0508 1.08398L13.9941 7.1875L20.3906 7.14844C21.1426 7.13867 21.6016 7.37305 21.7578 7.8418C21.9141 8.33008 21.6699 8.7793 21.0645 9.20898L15.8496 12.959L17.8906 19.0332C18.1348 19.7461 18.0469 20.2441 17.6465 20.5469C17.2363 20.8594 16.7383 20.752 16.1328 20.3125L10.957 16.5137L5.79102 20.3125C5.18555 20.752 4.67773 20.8594 4.27734 20.5469ZM5.68359 18.6133C5.70312 18.6426 5.73242 18.623 5.77148 18.5938L10.4688 15.0098C10.7812 14.7656 11.1426 14.7656 11.4551 15.0098L16.1523 18.5938C16.1914 18.623 16.2207 18.6426 16.2402 18.6133C16.2598 18.5938 16.25 18.584 16.2402 18.5254L14.2969 12.9395C14.1602 12.5586 14.2383 12.2559 14.5801 12.0215L19.4434 8.66211C19.4824 8.63281 19.502 8.61328 19.4922 8.58398C19.4824 8.55469 19.4629 8.55469 19.4043 8.55469L13.4961 8.66211C13.0957 8.67188 12.8418 8.50586 12.7148 8.10547L11.0156 2.45117C11.0059 2.39258 10.9863 2.37305 10.957 2.37305C10.9375 2.37305 10.918 2.39258 10.9082 2.45117L9.20898 8.10547C9.08203 8.50586 8.82812 8.67188 8.42773 8.66211L2.51953 8.55469C2.46094 8.55469 2.44141 8.55469 2.43164 8.58398C2.42188 8.61328 2.43164 8.63281 2.48047 8.66211L7.34375 12.0215C7.68555 12.2559 7.76367 12.5586 7.62695 12.9395L5.68359 18.5254C5.67383 18.584 5.66406 18.5938 5.68359 18.6133Z" fill="#00E457"/>
</svg>
