<svg width="18" height="17" viewBox="0 0 18 17" xmlns="http://www.w3.org/2000/svg">
  <path
    d="M3.42188 16.4375C3.10156 16.1953 3.03125 15.7969 3.22656 15.2266L4.85938 10.3672L0.6875 7.36719C0.203125 7.02344 0 6.66406 0.132812 6.27344C0.257812 5.89844 0.625 5.71094 1.22656 5.71875L6.34375 5.75L7.89844 0.867188C8.08594 0.289062 8.36719 0 8.76562 0C9.17188 0 9.45312 0.289062 9.64062 0.867188L11.1953 5.75L16.3125 5.71875C16.9141 5.71094 17.2812 5.89844 17.4062 6.27344C17.5312 6.66406 17.3359 7.02344 16.8516 7.36719L12.6797 10.3672L14.3125 15.2266C14.5078 15.7969 14.4375 16.1953 14.1172 16.4375C13.7891 16.6875 13.3906 16.6016 12.9062 16.25L8.76562 13.2109L4.63281 16.25C4.14844 16.6016 3.74219 16.6875 3.42188 16.4375Z"
    fill="#474747"
  />
</svg>
