<svg width="20" height="19" viewBox="0 0 20 19" fill="none" xmlns="http://www.w3.org/2000/svg">
<path d="M3.78377 18.1763C3.42957 17.9085 3.35183 17.4679 3.5678 16.8373L5.37331 11.4639L0.760179 8.14664C0.224572 7.76653 -3.76701e-05 7.36914 0.146822 6.9372C0.285043 6.52254 0.691068 6.32384 1.35626 6.32384H7.01469L8.73381 0.959136C8.94114 0.319863 9.25214 0.000226423 9.69272 0.000226423C10.1419 0.000226423 10.4529 0.319863 10.6603 0.959136L12.3794 6.32384H18.0378C18.703 6.32384 19.109 6.52254 19.2473 6.9372C19.3855 7.36914 19.1695 7.76653 18.6339 8.14664L14.0208 11.4639L15.8263 16.8373C16.0423 17.4679 15.9645 17.9085 15.6103 18.1763C15.2475 18.4527 14.8069 18.3577 14.2713 17.969L9.69272 14.6085L5.12278 17.969C4.58718 18.3577 4.13796 18.4527 3.78377 18.1763Z" fill="#00E457"/>
</svg>
