<svg width="12" height="11" viewBox="0 0 12 11" fill="none" xmlns="http://www.w3.org/2000/svg">
<path d="M0 5.82024C0 5.47109 0.237163 5.22734 0.579732 5.22734H7.24006L8.64328 5.28004L6.48246 3.29709L5.02654 1.81482C4.91455 1.70942 4.86184 1.55131 4.86184 1.3932C4.86184 1.06381 5.11218 0.820057 5.43499 0.820057C5.59968 0.820057 5.74462 0.885935 5.87637 1.01769L10.2441 5.37227C10.3364 5.4645 10.4022 5.56991 10.4286 5.6819V1.38002C10.4286 1.03746 10.6723 0.800293 11.0215 0.800293C11.3641 0.800293 11.6078 1.03746 11.6078 1.38002V10.2671C11.6078 10.603 11.3641 10.8336 11.0215 10.8336C10.6723 10.8336 10.4286 10.603 10.4286 10.2671V5.952C10.4022 6.06399 10.3364 6.1694 10.2441 6.26163L5.87637 10.6162C5.74462 10.748 5.59968 10.8073 5.43499 10.8073C5.11218 10.8073 4.86184 10.5701 4.86184 10.2407C4.86184 10.0826 4.91455 9.92448 5.02654 9.81249L6.48246 8.33681L8.64986 6.36045L7.24006 6.40656H0.579732C0.237163 6.40656 0 6.16281 0 5.82024Z" fill="#9C9C9C"/>
</svg>
