<svg width="24" height="24" viewBox="0 0 24 24" fill="none" xmlns="http://www.w3.org/2000/svg">
<path d="M21.6718 15.3845C21.9176 15.1405 22.1016 14.8488 22.2236 14.5171C22.1113 14.3246 21.9854 14.1454 21.8518 13.9833C21.3349 13.3523 20.6804 12.9749 19.9641 12.9768C19.1044 12.9787 18.328 13.522 17.7801 14.3951C16.9611 14.0729 16.0937 13.5868 15.2437 12.9558C14.9939 12.769 14.7422 12.5688 14.4963 12.3572C16.0879 9.11638 16.4674 5.9823 15.509 4.17505C15.4993 4.15599 15.4877 4.13693 15.476 4.11786C15.4199 4.01682 15.3618 3.9196 15.296 3.82809C15.2185 3.71943 15.1372 3.61648 15.0481 3.52117C14.8894 3.34959 14.7074 3.19708 14.508 3.07126C14.0355 2.77196 13.4876 2.63089 12.8835 2.63089H12.8796C11.352 2.21339 10.0316 2.35065 9.23192 3.13417C7.50099 4.83847 8.88341 8.96196 12.3182 12.3439C12.3685 12.3953 12.4208 12.4449 12.4731 12.4964C12.3956 12.626 12.3143 12.7556 12.233 12.8834C12.2059 12.9253 12.1788 12.9673 12.1536 13.0073C9.53977 17.0221 5.75457 19.224 3.7003 17.9276C2.15912 16.9554 2.0294 14.2865 3.16786 11.3163C1.33238 15.2587 1.30527 18.9819 3.32275 20.2534C5.7507 21.7861 10.2252 19.182 13.3133 14.4371C13.4179 14.2769 13.5186 14.1149 13.6173 13.9548C13.6812 13.8518 13.7432 13.7489 13.8032 13.6459C14.0491 13.8385 14.2969 14.0215 14.5467 14.1931C15.4509 14.8183 16.3609 15.3007 17.2263 15.6266C17.0443 16.2138 16.9436 16.8715 16.9456 17.5635C16.9475 20.0952 18.3048 22.1445 19.9757 22.1426C20.5178 22.1407 21.0251 21.9215 21.4646 21.5421C21.2497 21.6317 21.0251 21.6832 20.7927 21.6832C19.3638 21.6851 18.206 19.9331 18.2022 17.7713C18.2022 17.1327 18.3009 16.5303 18.481 15.9965C19.813 16.2691 20.9534 16.0899 21.6718 15.3845ZM20.7811 13.8518C21.118 13.8518 21.4414 13.9509 21.7376 14.1282C21.7085 14.1625 21.6776 14.195 21.6446 14.2274C21.0677 14.7955 20.1693 14.9613 19.116 14.7783C19.5652 14.2007 20.1461 13.8518 20.7811 13.8518ZM13.2146 11.12C10.6918 8.3748 9.74694 5.21975 11.1216 3.86622C11.4527 3.54023 11.8883 3.34769 12.3995 3.27524C12.4033 3.27334 12.4072 3.27334 12.413 3.27334C12.5641 3.25427 12.7228 3.24284 12.8835 3.24284C12.9803 3.28668 13.0752 3.33625 13.1662 3.39344C14.8991 4.4877 14.8448 7.72282 13.2146 11.12Z" fill="black"/>
</svg>
