<svg width="24" height="24" viewBox="0 0 24 24" fill="none" xmlns="http://www.w3.org/2000/svg">
<path d="M21.6725 15.3845C21.9184 15.1405 22.1023 14.8488 22.2243 14.5171C22.112 14.3246 21.9861 14.1454 21.8526 13.9833C21.3356 13.3523 20.6812 12.9749 19.9648 12.9768C19.1051 12.9787 18.3287 13.522 17.7808 14.3951C16.9618 14.0729 16.0944 13.5868 15.2444 12.9558C14.9947 12.769 14.743 12.5688 14.4971 12.3572C16.0886 9.11638 16.4681 5.9823 15.5097 4.17505C15.5 4.15599 15.4884 4.13693 15.4768 4.11786C15.4206 4.01682 15.3625 3.9196 15.2967 3.82809C15.2193 3.71943 15.1379 3.61648 15.0489 3.52117C14.8901 3.34959 14.7081 3.19708 14.5087 3.07126C14.0363 2.77196 13.4883 2.63089 12.8843 2.63089H12.8804C11.3527 2.21339 10.0323 2.35065 9.23265 3.13417C7.50172 4.83847 8.88414 8.96196 12.3189 12.3439C12.3692 12.3953 12.4215 12.4449 12.4738 12.4964C12.3963 12.626 12.315 12.7556 12.2337 12.8834C12.2066 12.9253 12.1795 12.9673 12.1543 13.0073C9.5405 17.0221 5.7553 19.224 3.70104 17.9276C2.15985 16.9554 2.03013 14.2865 3.16859 11.3163C1.33311 15.2587 1.30601 18.9819 3.32349 20.2534C5.75143 21.7861 10.2259 19.182 13.3141 14.4371C13.4186 14.2769 13.5193 14.1149 13.6181 13.9548C13.6819 13.8518 13.7439 13.7489 13.8039 13.6459C14.0498 13.8385 14.2976 14.0215 14.5474 14.1931C15.4516 14.8183 16.3616 15.3007 17.2271 15.6266C17.0451 16.2138 16.9444 16.8715 16.9463 17.5635C16.9483 20.0952 18.3055 22.1445 19.9764 22.1426C20.5185 22.1407 21.0258 21.9215 21.4653 21.5421C21.2504 21.6317 21.0258 21.6832 20.7935 21.6832C19.3646 21.6851 18.2068 19.9331 18.2029 17.7713C18.2029 17.1327 18.3016 16.5303 18.4817 15.9965C19.8138 16.2691 20.9542 16.0899 21.6725 15.3845ZM20.7819 13.8518C21.1187 13.8518 21.4421 13.9509 21.7383 14.1282C21.7093 14.1625 21.6783 14.195 21.6454 14.2274C21.0684 14.7955 20.17 14.9613 19.1168 14.7783C19.5659 14.2007 20.1468 13.8518 20.7819 13.8518ZM13.2153 11.12C10.6925 8.3748 9.74767 5.21975 11.1223 3.86622C11.4534 3.54023 11.8891 3.34769 12.4002 3.27524C12.4041 3.27334 12.408 3.27334 12.4138 3.27334C12.5648 3.25427 12.7235 3.24284 12.8843 3.24284C12.9811 3.28668 13.0759 3.33625 13.1669 3.39344C14.8998 4.4877 14.8456 7.72282 13.2153 11.12Z" fill="white"/>
</svg>
