<svg width="65" height="63" viewBox="0 0 65 63" fill="none" xmlns="http://www.w3.org/2000/svg">
<path d="M63.2438 41.4346C64.0264 40.6559 64.6118 39.7252 65 38.6667C64.6426 38.0522 64.2421 37.4804 63.8169 36.9633C62.1716 34.9497 60.0889 33.7453 57.8089 33.7513C55.073 33.7574 52.602 35.4912 50.8581 38.2773C48.2516 37.2492 45.491 35.698 42.7858 33.6844C41.9909 33.0882 41.1899 32.4495 40.4073 31.7743C45.4725 21.4326 46.6803 11.4316 43.6301 5.66459C43.5992 5.60376 43.5623 5.54292 43.5253 5.48209C43.3466 5.15967 43.1617 4.84942 42.9522 4.55742C42.7057 4.21067 42.4469 3.88217 42.1635 3.57801C41.6582 3.03051 41.079 2.54384 40.4443 2.14234C38.9407 1.18726 37.1969 0.73709 35.2743 0.73709H35.262C30.4001 -0.595159 26.1976 -0.15716 23.6527 2.34309C18.1439 7.78159 22.5435 20.9398 33.475 31.7317C33.6352 31.8959 33.8016 32.0541 33.968 32.2183C33.7215 32.632 33.4627 33.0457 33.2039 33.4533C33.1176 33.5871 33.0313 33.7209 32.9512 33.8487C24.6325 46.6602 12.5857 53.6864 6.04777 49.5497C1.14278 46.4472 0.729926 37.9306 4.35321 28.4528C-1.48841 41.0331 -1.57468 52.9138 4.84617 56.9714C12.5734 61.8624 26.8138 53.5526 36.6423 38.4112C36.975 37.9002 37.2955 37.3831 37.6097 36.8721C37.8131 36.5436 38.0103 36.2151 38.2013 35.8866C38.9839 36.501 39.7726 37.085 40.5675 37.6325C43.4452 39.6278 46.3413 41.1669 49.0958 42.2072C48.5165 44.0808 48.1961 46.1796 48.2023 48.3878C48.2084 56.4665 52.528 63.0061 57.8459 63C59.5712 62.9939 61.1857 62.2943 62.5845 61.0837C61.9005 61.3697 61.1857 61.5339 60.4463 61.5339C55.8987 61.54 52.2138 55.9494 52.2014 49.0509C52.2014 47.013 52.5157 45.0907 53.0888 43.3873C57.3283 44.2572 60.9577 43.6854 63.2438 41.4346ZM60.4093 36.5436C61.4815 36.5436 62.5105 36.8599 63.4533 37.4257C63.3609 37.5352 63.2623 37.6386 63.1576 37.742C61.3213 39.5548 58.4621 40.0841 55.1099 39.5001C56.5395 37.6568 58.3881 36.5436 60.4093 36.5436ZM36.328 27.8262C28.2989 19.0662 25.2918 8.99826 29.6669 4.67909C30.7206 3.63884 32.107 3.02442 33.7338 2.79326C33.7461 2.78717 33.7585 2.78717 33.7769 2.78717C34.2576 2.72634 34.7629 2.68984 35.2743 2.68984C35.5824 2.82976 35.8844 2.98792 36.174 3.17042C41.689 6.66226 41.5165 16.9857 36.328 27.8262Z" fill="url(#paint0_linear_5885_4005)"/>
<defs>
<linearGradient id="paint0_linear_5885_4005" x1="19.3606" y1="11.3036" x2="59.7017" y2="46.958" gradientUnits="userSpaceOnUse">
<stop stop-color="#4AF38A"/>
<stop offset="1" stop-color="#32E2D0"/>
</linearGradient>
</defs>
</svg>
