<svg width="21" height="22" viewBox="0 0 21 22" fill="none" xmlns="http://www.w3.org/2000/svg">
<path d="M2.87109 21.7031C0.957031 21.7031 0 21.0781 0 19.8281C0 19.0625 0.234375 18.2461 0.703125 17.3789C1.17188 16.5117 1.84766 15.6953 2.73047 14.9297C3.62109 14.1562 4.69531 13.5273 5.95312 13.043C7.21875 12.5586 8.64844 12.3164 10.2422 12.3164C11.8281 12.3164 13.25 12.5586 14.5078 13.043C15.7734 13.5273 16.8477 14.1562 17.7305 14.9297C18.6211 15.6953 19.3008 16.5117 19.7695 17.3789C20.2383 18.2461 20.4727 19.0625 20.4727 19.8281C20.4727 21.0781 19.5156 21.7031 17.6016 21.7031H2.87109ZM2.32031 19.9336H18.1641C18.3125 19.9336 18.418 19.9102 18.4805 19.8633C18.5508 19.8164 18.5859 19.7305 18.5859 19.6055C18.5859 19.1211 18.4023 18.5664 18.0352 17.9414C17.6758 17.3164 17.1406 16.7109 16.4297 16.125C15.7188 15.5391 14.8438 15.0547 13.8047 14.6719C12.7734 14.2812 11.5859 14.0859 10.2422 14.0859C8.89844 14.0859 7.70703 14.2812 6.66797 14.6719C5.62891 15.0547 4.75391 15.5391 4.04297 16.125C3.33203 16.7109 2.79297 17.3164 2.42578 17.9414C2.06641 18.5664 1.88672 19.1211 1.88672 19.6055C1.88672 19.7305 1.91797 19.8164 1.98047 19.8633C2.05078 19.9102 2.16406 19.9336 2.32031 19.9336ZM10.2422 10.8516C9.3125 10.8516 8.46484 10.6055 7.69922 10.1133C6.93359 9.62109 6.32031 8.96094 5.85938 8.13281C5.40625 7.29688 5.17969 6.37891 5.17969 5.37891C5.17969 4.38672 5.40625 3.48437 5.85938 2.67188C6.32031 1.85938 6.93359 1.21094 7.69922 0.726562C8.46484 0.242188 9.3125 0 10.2422 0C11.1797 0 12.0312 0.238281 12.7969 0.714844C13.5625 1.19141 14.1719 1.83594 14.625 2.64844C15.0781 3.45313 15.3047 4.35547 15.3047 5.35547C15.3047 6.36328 15.0742 7.28516 14.6133 8.12109C14.1602 8.94922 13.5508 9.61328 12.7852 10.1133C12.0195 10.6055 11.1719 10.8516 10.2422 10.8516ZM10.2422 9.08203C10.8203 9.08203 11.3477 8.91797 11.8242 8.58984C12.3086 8.25391 12.6953 7.80469 12.9844 7.24219C13.2734 6.67188 13.418 6.04297 13.418 5.35547C13.418 4.67578 13.2734 4.06641 12.9844 3.52734C12.7031 2.98047 12.3203 2.55078 11.8359 2.23828C11.3594 1.92578 10.8281 1.76953 10.2422 1.76953C9.66406 1.76953 9.13281 1.92969 8.64844 2.25C8.17188 2.5625 7.78906 2.99219 7.5 3.53906C7.21094 4.08594 7.06641 4.69922 7.06641 5.37891C7.06641 6.06641 7.21094 6.69141 7.5 7.25391C7.79688 7.81641 8.18359 8.26172 8.66016 8.58984C9.14453 8.91797 9.67188 9.08203 10.2422 9.08203Z" fill="black"/>
</svg>
