<svg width="20" height="20" viewBox="0 0 20 20" fill="none" xmlns="http://www.w3.org/2000/svg">
<path d="M0.246094 8.11328C0.246094 3.81641 3.74219 0.320312 8.03906 0.320312C12.3359 0.320312 15.832 3.81641 15.832 8.11328C15.832 9.89062 15.2363 11.5215 14.2305 12.8301L19.0059 17.6348C19.2109 17.8398 19.3281 18.123 19.3281 18.4355C19.3281 19.0898 18.8691 19.5879 18.2051 19.5879C17.8926 19.5879 17.5996 19.4805 17.375 19.2559L12.5703 14.4414C11.291 15.3594 9.73828 15.9062 8.03906 15.9062C3.74219 15.9062 0.246094 12.4102 0.246094 8.11328ZM1.91602 8.11328C1.91602 11.4922 4.66016 14.2363 8.03906 14.2363C11.418 14.2363 14.1621 11.4922 14.1621 8.11328C14.1621 4.73438 11.418 1.99023 8.03906 1.99023C4.66016 1.99023 1.91602 4.73438 1.91602 8.11328Z" fill="black"/>
</svg>
