<svg width="15" height="12" viewBox="0 0 15 12" fill="none" xmlns="http://www.w3.org/2000/svg">
<path d="M15 6C15 6.23256 14.8968 6.45736 14.7143 6.62791L9.47619 11.7364C9.28571 11.9147 9.07936 12 8.85714 12C8.36508 12 8.00794 11.6512 8.00794 11.186C8.00794 10.9457 8.10317 10.7364 8.2619 10.5891L10.0397 8.82946L12.381 6.73643L10.5317 6.84496H0.880952C0.357143 6.84496 0 6.49612 0 6C0 5.49612 0.357143 5.15504 0.880952 5.15504H10.5317L12.373 5.26357L10.0397 3.17054L8.2619 1.41085C8.10317 1.25581 8.00794 1.04651 8.00794 0.806202C8.00794 0.341085 8.36508 0 8.85714 0C9.07936 0 9.29365 0.0775194 9.49206 0.271318L14.7143 5.37209C14.8968 5.53488 15 5.76744 15 6Z" fill="#232425"/>
</svg>
