<svg width="18" height="14" viewBox="0 0 18 14" fill="none" xmlns="http://www.w3.org/2000/svg">
<path d="M18 7C18 7.27132 17.8762 7.53359 17.6571 7.73256L11.3714 13.6925C11.1429 13.9005 10.8952 14 10.6286 14C10.0381 14 9.60952 13.593 9.60952 13.0504C9.60952 12.77 9.72381 12.5258 9.91429 12.354L12.0476 10.301L14.8571 7.85917L12.6381 7.98579H1.05714C0.428571 7.98579 0 7.57881 0 7C0 6.41214 0.428571 6.01421 1.05714 6.01421H12.6381L14.8476 6.14083L12.0476 3.69897L9.91429 1.64599C9.72381 1.46512 9.60952 1.22093 9.60952 0.940569C9.60952 0.397933 10.0381 0 10.6286 0C10.8952 0 11.1524 0.0904393 11.3905 0.316537L17.6571 6.26744C17.8762 6.45736 18 6.72868 18 7Z" fill="white"/>
</svg>
