<svg width="23" height="22" viewBox="0 0 23 22" fill="none" xmlns="http://www.w3.org/2000/svg">
<path d="M4.61523 21.1348C3.86328 21.1348 3.64844 20.5195 4.0293 20.0312C4.40039 19.543 5.37695 18.4688 5.92383 17.5703C6.00195 17.4238 5.95312 17.2773 5.80664 17.1992C2.67188 15.5195 0.748047 12.7754 0.748047 9.65039C0.748047 4.73828 5.66992 0.773438 11.8223 0.773438C17.9746 0.773438 22.8965 4.73828 22.8965 9.65039C22.8965 14.5137 18.2285 18.5176 11.1875 18.5176C11.0605 18.5176 10.9336 18.5078 10.8066 18.498C10.6699 18.498 10.5332 18.5469 10.3672 18.6641C8.70703 19.8555 5.78711 21.1348 4.61523 21.1348Z" fill="#00E457"/>
</svg>
