<svg width="47" height="14" viewBox="0 0 47 14" fill="none" xmlns="http://www.w3.org/2000/svg">
<path d="M1.63948 5.51831C0.650589 5.12795 0 4.24315 0 3.28028C0 1.74489 1.11901 0.599854 2.62838 0.599854C3.43511 0.599854 4.45003 1.04225 5.10062 1.27647L23.213 8.3809L41.2994 1.27647C41.95 1.04225 42.9909 0.599854 43.7716 0.599854C45.281 0.599854 46.4 1.74489 46.4 3.28028C46.4 4.24315 45.7494 5.12795 44.7605 5.51831L27.0125 12.4666C25.8154 12.935 24.358 13.5075 23.213 13.5075C22.042 13.5075 20.6107 12.935 19.4136 12.4666L1.63948 5.51831Z" fill="#D6D6D6"/>
</svg>
