<svg width="20" height="20" viewBox="0 0 20 20" fill="none" xmlns="http://www.w3.org/2000/svg">
<path d="M0 4C0 1.79086 1.79086 0 4 0H16C18.2091 0 20 1.79086 20 4V16C20 18.2091 18.2091 20 16 20H4C1.79086 20 0 18.2091 0 16V4Z" fill="#51515B"/>
<path d="M13.501 10.25C13.501 8.17893 11.822 6.5 9.75098 6.5C7.67991 6.5 6.00098 8.17893 6.00098 10.25C6.00098 12.3211 7.67991 14 9.75098 14V16C6.57534 16 4.00098 13.4256 4.00098 10.25C4.00098 7.07436 6.57534 4.5 9.75098 4.5C12.9266 4.5 15.501 7.07436 15.501 10.25C15.501 13.4256 12.9266 16 9.75098 16V14C11.822 14 13.501 12.3211 13.501 10.25Z" fill="white"/>
<path d="M17 4C17 4.55228 16.5523 5 16 5C15.4477 5 15 4.55228 15 4C15 3.44772 15.4477 3 16 3C16.5523 3 17 3.44772 17 4Z" fill="white"/>
</svg>
