<svg width="16" height="16" viewBox="0 0 16 16" fill="none" xmlns="http://www.w3.org/2000/svg">
<g clip-path="url(#clip0_5258_3125)">
<path d="M5.67578 9.34668C5.73938 9.45268 5.80818 9.55588 5.88218 9.65628C5.80858 9.55588 5.73938 9.45308 5.67578 9.34668Z" fill="#3182F6"/>
<path d="M7.88311 11.1023L6.28711 12.6987C6.59951 12.3863 7.10591 12.3863 7.41831 12.6987C7.73071 13.0111 7.73071 13.5179 7.41831 13.8299L9.72271 11.5251C9.83191 11.4159 9.93191 11.2999 10.0267 11.1807C9.72631 11.2519 9.41711 11.2927 9.10071 11.2927C8.68111 11.2927 8.27191 11.2263 7.88311 11.1023Z" fill="#0A37C7"/>
<path d="M10.3748 6.73828C10.5748 7.11748 10.4424 7.58988 10.0672 7.80508C9.68397 8.02508 9.19477 7.89228 8.97517 7.50908C8.96797 7.49668 8.95877 7.48548 8.95117 7.47308C9.17197 7.84068 9.29237 8.26108 9.29237 8.70108C9.29237 9.04908 9.21637 9.38428 9.07637 9.69188C9.08437 9.69188 9.09237 9.69308 9.10037 9.69308C9.73997 9.69308 10.3412 9.44428 10.7932 8.99188L10.8824 8.90308C10.8856 8.83588 10.8924 8.76908 10.8924 8.70148C10.8924 8.00188 10.7108 7.33068 10.3748 6.73828Z" fill="#0A37C7"/>
<path d="M7.41826 12.6989C7.10586 12.3865 6.59946 12.3865 6.28706 12.6989C5.35386 13.6317 3.83466 13.6321 2.90066 12.6989C1.96746 11.7653 1.96746 10.2461 2.90066 9.31248L5.11626 7.09728L5.20546 7.00848C5.65786 6.55608 6.25906 6.30728 6.89826 6.30728C6.90626 6.30728 6.91426 6.30848 6.92226 6.30848C7.55266 6.31488 8.14426 6.56208 8.59106 7.00848C8.65946 7.07688 8.72186 7.15008 8.78106 7.22528C8.79706 7.24568 8.81146 7.26608 8.82666 7.28688C8.87106 7.34728 8.91266 7.40968 8.95106 7.47328C8.95826 7.48568 8.96786 7.49688 8.97506 7.50928C9.19506 7.89248 9.68386 8.02528 10.0671 7.80528C10.4419 7.59008 10.5747 7.11768 10.3747 6.73848C10.3703 6.73008 10.3679 6.72128 10.3635 6.71288C10.3515 6.69208 10.3363 6.67408 10.3239 6.65368C10.2603 6.54728 10.1911 6.44368 10.1171 6.34328C10.0907 6.30728 10.0651 6.27128 10.0375 6.23608C9.93906 6.11128 9.83546 5.99008 9.72226 5.87688C9.26466 5.41928 8.71506 5.08848 8.11586 4.89768C7.72706 4.77368 7.31786 4.70728 6.89826 4.70728C6.58186 4.70728 6.27266 4.74808 5.97226 4.81928C5.25986 4.98768 4.60466 5.34648 4.07426 5.87728L1.76946 8.18168C0.212263 9.73928 0.212263 12.2733 1.76946 13.8305C2.54826 14.6089 3.57106 14.9985 4.59426 14.9985C5.61746 14.9985 6.63946 14.6089 7.41866 13.8305C7.73106 13.5185 7.73106 13.0117 7.41866 12.6993L7.41826 12.6989Z" fill="#185DEE"/>
<path d="M14.2314 7.81998L11.9234 10.124C11.3954 10.652 10.7394 11.012 10.0274 11.18C9.72742 11.252 9.41542 11.292 9.09942 11.292C8.67942 11.292 8.27142 11.228 7.88342 11.104C7.62342 11.02 7.37142 10.908 7.13142 10.772C7.10742 10.756 7.07942 10.74 7.05142 10.724C6.94742 10.66 6.84342 10.592 6.73942 10.516C6.70742 10.492 6.67142 10.464 6.63542 10.44C6.51142 10.34 6.39142 10.236 6.27542 10.124C6.16342 10.008 6.05942 9.88798 5.95942 9.76398C5.93542 9.72798 5.90742 9.69198 5.87942 9.65598C5.80742 9.55598 5.73942 9.45198 5.67542 9.34798C5.66342 9.32798 5.64742 9.30798 5.63542 9.28798C5.63142 9.27998 5.62742 9.26798 5.62342 9.25998C5.28742 8.66798 5.10742 7.99998 5.10742 7.29998C5.10742 7.23198 5.11142 7.16398 5.11542 7.09598L5.20342 7.00798C5.65942 6.55598 6.25942 6.30798 6.89942 6.30798H6.92342C6.78342 6.61598 6.70742 6.95198 6.70742 7.29998C6.70742 7.73998 6.82742 8.15998 7.04742 8.52798C7.08742 8.59198 7.12742 8.65198 7.17142 8.71198C7.18742 8.73598 7.20342 8.75598 7.21942 8.77598C7.27542 8.85198 7.33942 8.92398 7.40742 8.99198C7.47542 9.05998 7.54742 9.12398 7.62342 9.17998C7.64342 9.19598 7.66342 9.21198 7.68742 9.22798C7.74742 9.27198 7.80742 9.31198 7.87142 9.35198C8.23542 9.56798 8.64342 9.68798 9.07542 9.69198H9.09942C9.73942 9.69198 10.3394 9.44398 10.7954 8.99198L10.8834 8.90398L13.0994 6.68798C14.0314 5.75198 14.0314 4.23598 13.0994 3.29998C12.1634 2.36798 10.6474 2.36798 9.71142 3.29998L9.03942 3.97598L8.61542 4.39998L8.11542 4.89598C7.72742 4.77198 7.31942 4.70798 6.89942 4.70798C6.58342 4.70798 6.27142 4.74798 5.97142 4.81998C6.06742 4.69998 6.16742 4.58398 6.27542 4.47598L7.48342 3.26798L8.57942 2.16798C10.1354 0.611977 12.6714 0.611977 14.2314 2.16798C15.7874 3.72798 15.7874 6.25998 14.2314 7.81998Z" fill="#3182F6"/>
</g>
<defs>
<clipPath id="clip0_5258_3125">
<rect width="16" height="16" fill="white"/>
</clipPath>
</defs>
</svg>
