<svg width="13" height="13" viewBox="0 0 13 13" fill="none" xmlns="http://www.w3.org/2000/svg">
<path d="M6.4043 3.93164C6.7793 3.99805 7.0918 4.0957 7.3418 4.22461C7.5918 4.34961 7.80859 4.50586 7.99219 4.69336C8.46875 5.16602 8.78516 5.6875 8.94141 6.25781C9.09766 6.82422 9.0957 7.39062 8.93555 7.95703C8.7793 8.52344 8.4668 9.04102 7.99805 9.50977L5.99414 11.5195C5.5293 11.9844 5.01367 12.2949 4.44727 12.4512C3.88086 12.6113 3.3125 12.6133 2.74219 12.457C2.17578 12.3008 1.6543 11.9844 1.17773 11.5078C0.705078 11.0352 0.390625 10.5156 0.234375 9.94922C0.078125 9.37891 0.078125 8.81055 0.234375 8.24414C0.394531 7.67773 0.707031 7.16016 1.17188 6.69141L2.89453 4.97461C2.86328 5.16602 2.85742 5.36719 2.87695 5.57812C2.90039 5.78516 2.95312 5.98047 3.03516 6.16406L1.88672 7.3125C1.54688 7.65234 1.32031 8.02734 1.20703 8.4375C1.09375 8.84766 1.09375 9.25977 1.20703 9.67383C1.32031 10.084 1.54688 10.4609 1.88672 10.8047C2.22656 11.1445 2.60156 11.3691 3.01172 11.4785C3.42578 11.5918 3.83789 11.5918 4.24805 11.4785C4.6582 11.3652 5.0332 11.1387 5.37305 10.7988L7.28906 8.88867C7.62891 8.54883 7.85352 8.17383 7.96289 7.76367C8.07617 7.35352 8.07617 6.94336 7.96289 6.5332C7.84961 6.11914 7.62305 5.74023 7.2832 5.39648C7.0918 5.20508 6.86328 5.05273 6.59766 4.93945C6.33594 4.82617 6.01172 4.75391 5.625 4.72266L6.4043 3.93164ZM6.25781 8.75977C5.88281 8.69336 5.57031 8.59766 5.32031 8.47266C5.07031 8.34375 4.85352 8.18555 4.66992 7.99805C4.19336 7.52539 3.87695 7.00586 3.7207 6.43945C3.56445 5.86914 3.56445 5.30078 3.7207 4.73438C3.88086 4.16797 4.19531 3.65039 4.66406 3.18164L6.66211 1.17773C7.13086 0.708984 7.64844 0.396484 8.21484 0.240234C8.78125 0.0800781 9.34766 0.078125 9.91406 0.234375C10.4844 0.390625 11.0078 0.707031 11.4844 1.18359C11.957 1.65625 12.2715 2.17773 12.4277 2.74805C12.584 3.31445 12.582 3.88086 12.4219 4.44727C12.2656 5.01367 11.9551 5.53125 11.4902 6L9.76758 7.7168C9.79883 7.52539 9.80273 7.32617 9.7793 7.11914C9.75977 6.91211 9.70898 6.71484 9.62695 6.52734L10.7754 5.37891C11.1152 5.03906 11.3418 4.66406 11.4551 4.25391C11.5684 3.84375 11.5684 3.43359 11.4551 3.02344C11.3418 2.60937 11.1152 2.23242 10.7754 1.89258C10.4316 1.54883 10.0547 1.32227 9.64453 1.21289C9.23438 1.09961 8.82422 1.09961 8.41406 1.21289C8.00391 1.32617 7.62695 1.55273 7.2832 1.89258L5.37305 3.80273C5.0332 4.14258 4.80664 4.51758 4.69336 4.92773C4.58008 5.33789 4.58008 5.75 4.69336 6.16406C4.80664 6.57422 5.03516 6.95117 5.37891 7.29492C5.57031 7.48633 5.79688 7.63867 6.05859 7.75195C6.32422 7.86523 6.65039 7.9375 7.03711 7.96875L6.25781 8.75977Z" fill="black"/>
</svg>
