<svg width="20" height="24" viewBox="0 0 20 24" fill="none" xmlns="http://www.w3.org/2000/svg">
<path d="M9.82857 -4.2962e-07C10.2095 -4.46272e-07 10.5778 0.165079 10.8571 0.457141L19.2254 8.83809C19.5175 9.14286 19.6571 9.47301 19.6571 9.82857C19.6571 10.6159 19.0857 11.1873 18.3238 11.1873C17.9302 11.1873 17.5873 11.0349 17.346 10.781L14.4635 7.93651L11.0349 4.19047L11.2127 7.14921L11.2127 22.5905C11.2127 23.4286 10.6413 24 9.82857 24C9.00317 24 8.44444 23.4286 8.44444 22.5905L8.44444 7.14921L8.62222 4.20317L5.19365 7.93651L2.31111 10.781C2.05714 11.0349 1.71429 11.1873 1.32063 11.1873C0.55873 11.1873 0 10.6159 0 9.82857C0 9.47302 0.126984 9.13016 0.444444 8.8127L8.8 0.457141C9.06667 0.165079 9.44762 -4.12969e-07 9.82857 -4.2962e-07Z" fill="#00E457"/>
</svg>
