<svg width="60" height="60" viewBox="0 0 60 60" fill="none" xmlns="http://www.w3.org/2000/svg">
<rect width="60" height="60" rx="10" fill="#DCF2E4"/>
<path d="M48.9193 33.4308C49.4009 32.9528 49.7611 32.3816 50 31.7319C49.7801 31.3548 49.5336 31.0039 49.2719 30.6865C48.2595 29.4506 46.9778 28.7114 45.5747 28.7151C43.891 28.7188 42.3704 29.7829 41.2973 31.493C39.6933 30.862 37.9944 29.9099 36.3298 28.674C35.8406 28.3081 35.3476 27.9161 34.866 27.5017C37.9831 21.1544 38.7263 15.0162 36.8493 11.4767C36.8303 11.4393 36.8075 11.402 36.7848 11.3647C36.6748 11.1668 36.5611 10.9764 36.4321 10.7971C36.2805 10.5843 36.1212 10.3827 35.9468 10.196C35.6358 9.85999 35.2794 9.5613 34.8888 9.31488C33.9635 8.72869 32.8904 8.45239 31.7073 8.45239H31.6997C28.7078 7.63472 26.1216 7.90354 24.5555 9.43809C21.1654 12.776 23.873 20.852 30.6 27.4755C30.6986 27.5763 30.801 27.6734 30.9034 27.7742C30.7517 28.0281 30.5924 28.282 30.4332 28.5322C30.3801 28.6143 30.327 28.6964 30.2777 28.7748C25.1584 36.638 17.745 40.9504 13.7217 38.4115C10.7033 36.5073 10.4492 31.2802 12.6789 25.4631C9.08406 33.1843 9.03097 40.4762 12.9823 42.9666C17.7375 45.9685 26.5008 40.8683 32.5491 31.5751C32.7539 31.2615 32.9511 30.9441 33.1444 30.6305C33.2696 30.4289 33.3909 30.2273 33.5085 30.0256C33.9901 30.4027 34.4755 30.7612 34.9646 31.0972C36.7355 32.3218 38.5177 33.2665 40.2128 33.9049C39.8563 35.0549 39.6591 36.343 39.6629 37.6984C39.6667 42.6567 42.3249 46.6704 45.5975 46.6667C46.6592 46.6629 47.6527 46.2336 48.5135 45.4906C48.0926 45.666 47.6527 45.7669 47.1977 45.7669C44.3992 45.7706 42.1315 42.3393 42.124 38.1053C42.124 36.8545 42.3174 35.6747 42.67 34.6293C45.2789 35.1632 47.5124 34.8122 48.9193 33.4308ZM47.1749 30.4289C47.8348 30.4289 48.468 30.623 49.0482 30.9703C48.9913 31.0375 48.9306 31.1009 48.8662 31.1644C47.7362 32.277 45.9767 32.6019 43.9138 32.2434C44.7935 31.1121 45.9312 30.4289 47.1749 30.4289ZM32.3557 25.0785C27.4147 19.702 25.5642 13.5227 28.2565 10.8718C28.905 10.2334 29.7582 9.85626 30.7593 9.71438C30.7669 9.71065 30.7744 9.71065 30.7858 9.71065C31.0816 9.67331 31.3925 9.65091 31.7073 9.65091C31.8969 9.73678 32.0827 9.83386 32.2609 9.94587C35.6548 12.089 35.5486 18.4251 32.3557 25.0785Z" fill="white"/>
</svg>
