<svg width="12" height="11" viewBox="0 0 12 11" fill="none" xmlns="http://www.w3.org/2000/svg">
<path d="M4.30645 10.8684C3.95946 10.8684 3.69921 10.7382 3.46375 10.447L0.25405 6.49376C0.074356 6.27689 0 6.07241 0 5.85554C0 5.35983 0.365584 5.00044 0.873683 5.00044C1.1773 5.00044 1.38798 5.11198 1.59246 5.36603L4.28167 8.77401L9.52996 0.458529C9.74064 0.123927 9.95131 0 10.2983 0C10.8002 0 11.1596 0.353191 11.1596 0.842701C11.1596 1.03479 11.1038 1.23307 10.9551 1.45614L5.15535 10.4284C4.95707 10.7259 4.67204 10.8684 4.30645 10.8684Z" fill="#4AF38A"/>
</svg>
