<svg width="48" height="48" viewBox="0 0 48 48" fill="none" xmlns="http://www.w3.org/2000/svg">
<rect width="48" height="48" rx="8" fill="url(#paint0_linear_2190_560)"/>
<path d="M40.1195 29.6411C40.5293 29.2344 40.8359 28.7482 41.0392 28.1954C40.852 27.8745 40.6423 27.5758 40.4196 27.3057C39.558 26.2541 38.4673 25.625 37.2734 25.6281C35.8406 25.6313 34.5466 26.5368 33.6334 27.992C32.2684 27.4551 30.8227 26.6449 29.4061 25.5932C28.9898 25.2818 28.5703 24.9482 28.1605 24.5955C30.813 19.1941 31.4455 13.9707 29.8482 10.9586C29.832 10.9268 29.8127 10.895 29.7933 10.8633C29.6997 10.6949 29.6029 10.5328 29.4932 10.3803C29.3641 10.1992 29.2286 10.0276 29.0802 9.86877C28.8156 9.58282 28.5122 9.32863 28.1798 9.11893C27.3925 8.6201 26.4793 8.38498 25.4724 8.38498H25.466C22.9199 7.68915 20.7192 7.91792 19.3864 9.22378C16.5016 12.0643 18.8056 18.9368 24.5302 24.5733C24.6141 24.6591 24.7012 24.7417 24.7883 24.8275C24.6593 25.0435 24.5237 25.2596 24.3882 25.4725C24.343 25.5424 24.2978 25.6123 24.2559 25.679C19.8995 32.3703 13.5909 36.0401 10.1671 33.8796C7.59845 32.2591 7.38225 27.8109 9.27969 22.8607C6.22055 29.4314 6.17537 35.6366 9.53784 37.7559C13.5844 40.3104 21.0419 35.9702 26.1888 28.0619C26.3631 27.795 26.5309 27.525 26.6955 27.2581C26.8019 27.0865 26.9052 26.9149 27.0052 26.7434C27.4151 27.0643 27.8281 27.3693 28.2444 27.6552C29.7514 28.6974 31.268 29.5013 32.7105 30.0446C32.4071 31.0232 32.2393 32.1193 32.2426 33.2727C32.2458 37.4921 34.5079 40.9077 37.2927 40.9046C38.1963 40.9014 39.0417 40.536 39.7742 39.9037C39.416 40.053 39.0417 40.1388 38.6545 40.1388C36.273 40.142 34.3433 37.2221 34.3368 33.619C34.3368 32.5546 34.5014 31.5506 34.8015 30.661C37.0217 31.1153 38.9223 30.8167 40.1195 29.6411ZM38.6351 27.0865C39.1966 27.0865 39.7355 27.2517 40.2292 27.5472C40.1808 27.6044 40.1292 27.6584 40.0743 27.7124C39.1127 28.6593 37.6154 28.9357 35.86 28.6307C36.6086 27.668 37.5767 27.0865 38.6351 27.0865ZM26.0243 22.5335C21.8196 17.9582 20.2448 12.6997 22.5359 10.4439C23.0877 9.90055 23.8138 9.57964 24.6657 9.4589C24.6722 9.45573 24.6786 9.45573 24.6883 9.45573C24.94 9.42395 25.2046 9.40489 25.4724 9.40489C25.6338 9.47797 25.7919 9.56058 25.9436 9.65589C28.8317 11.4797 28.7413 16.8715 26.0243 22.5335Z" fill="white"/>
<defs>
<linearGradient id="paint0_linear_2190_560" x1="40.5099" y1="-8.11776e-07" x2="7.49011" y2="48" gradientUnits="userSpaceOnUse">
<stop stop-color="#00E457"/>
<stop offset="1" stop-color="#2DE4B7"/>
</linearGradient>
</defs>
</svg>
