<svg width="7" height="12" viewBox="0 0 7 12" fill="none" xmlns="http://www.w3.org/2000/svg">
<path d="M6.68555 5.93359C6.68555 5.84701 6.6696 5.76725 6.6377 5.69434C6.60579 5.61686 6.55794 5.54622 6.49414 5.48242L1.07324 0.177734C0.950195 0.0592448 0.802083 0 0.628906 0C0.510417 0 0.405599 0.0273438 0.314453 0.0820312C0.21875 0.136719 0.143555 0.211914 0.0888672 0.307617C0.0296224 0.398763 0 0.503581 0 0.62207C0 0.79069 0.0615234 0.938802 0.18457 1.06641L5.16113 5.93359L0.18457 10.8008C0.0615234 10.9284 0 11.0765 0 11.2451C0 11.3636 0.0296224 11.4684 0.0888672 11.5596C0.143555 11.6553 0.21875 11.7305 0.314453 11.7852C0.405599 11.8398 0.510417 11.8672 0.628906 11.8672C0.802083 11.8672 0.950195 11.8057 1.07324 11.6826L6.49414 6.38477C6.55794 6.32096 6.60579 6.2526 6.6377 6.17969C6.6696 6.10221 6.68555 6.02018 6.68555 5.93359Z" fill="white"/>
</svg>
