<svg width="40" height="40" viewBox="0 0 40 40" fill="none" xmlns="http://www.w3.org/2000/svg">
<g clip-path="url(#clip0_3814_889)">
<path d="M9.78801 39.5891C9.51901 39.5891 9.24602 39.5201 8.99602 39.3751C8.23602 38.9371 7.97501 37.9661 8.41501 37.2061L15.833 24.3571C16.271 23.5981 17.241 23.3361 18.002 23.7761C18.762 24.2141 19.023 25.1851 18.583 25.9451L11.165 38.7941C10.871 39.3041 10.338 39.5891 9.78801 39.5891Z" fill="#4B596A"/>
<path d="M34.8552 9.87108L21.6172 2.22808C20.4952 1.58008 19.0932 2.39008 19.0932 3.68508V6.04208C19.0932 9.04808 17.4902 11.8251 14.8872 13.3281L5.14619 18.9521C4.02419 19.6001 4.02419 21.2191 5.14619 21.8661L26.0832 33.9541C27.2052 34.6021 28.6072 33.7921 28.6072 32.4971V21.2491C28.6072 18.2431 30.2102 15.4661 32.8132 13.9631L34.8552 12.7841C35.9772 12.1361 35.9772 10.5171 34.8552 9.87008V9.87108Z" fill="#EF4452"/>
</g>
<defs>
<clipPath id="clip0_3814_889">
<rect width="40" height="40" fill="white"/>
</clipPath>
</defs>
</svg>
