<svg width="7" height="12" viewBox="0 0 7 12" fill="none" xmlns="http://www.w3.org/2000/svg">
<path d="M0 5.93359C0 5.84701 0.0159505 5.76725 0.0478516 5.69434C0.0797526 5.61686 0.127604 5.54622 0.191406 5.48242L5.6123 0.177734C5.73535 0.0592448 5.88346 0 6.05664 0C6.17513 0 6.27995 0.0273438 6.37109 0.0820312C6.4668 0.136719 6.54199 0.211914 6.59668 0.307617C6.65592 0.398763 6.68555 0.503581 6.68555 0.62207C6.68555 0.79069 6.62402 0.938802 6.50098 1.06641L1.52441 5.93359L6.50098 10.8008C6.62402 10.9284 6.68555 11.0765 6.68555 11.2451C6.68555 11.3636 6.65592 11.4684 6.59668 11.5596C6.54199 11.6553 6.4668 11.7305 6.37109 11.7852C6.27995 11.8398 6.17513 11.8672 6.05664 11.8672C5.88346 11.8672 5.73535 11.8057 5.6123 11.6826L0.191406 6.38477C0.127604 6.32096 0.0797526 6.2526 0.0478516 6.17969C0.0159505 6.10221 0 6.02018 0 5.93359Z" fill="white"/>
</svg>
