<svg width="11" height="6" viewBox="0 0 11 6" fill="none" xmlns="http://www.w3.org/2000/svg">
<path d="M5.58594 5.89258C5.43359 5.89258 5.29883 5.83398 5.1875 5.72266L0.652344 1.08203C0.552734 0.976562 0.494141 0.847656 0.494141 0.701172C0.494141 0.396484 0.722656 0.162109 1.02734 0.162109C1.17969 0.162109 1.31445 0.220703 1.4082 0.314453L5.58594 4.58008L9.75781 0.314453C9.85742 0.220703 9.99219 0.162109 10.1387 0.162109C10.4434 0.162109 10.6719 0.396484 10.6719 0.701172C10.6719 0.847656 10.6133 0.976562 10.5137 1.07617L5.97852 5.72266C5.87891 5.83398 5.73242 5.89258 5.58594 5.89258Z" fill="white"/>
</svg>
