<svg width="14" height="14" viewBox="0 0 14 14" fill="none" xmlns="http://www.w3.org/2000/svg">
<g clip-path="url(#clip0_4422_2031)">
<path d="M13.1474 7.37239C13.1474 3.87729 10.2305 1.06329 6.69797 1.23234C3.61412 1.37969 1.06437 3.88429 0.86592 6.96534C0.71192 9.35514 1.92537 11.473 3.79892 12.6178C4.42787 13.0021 5.25142 12.6469 5.43902 11.9343L5.46212 11.8468H5.46457C5.60492 11.1006 6.25767 10.5353 7.04447 10.5353C7.83127 10.5353 8.48402 11.1006 8.62437 11.8468H8.62682C8.79412 12.5888 9.64847 12.9685 10.2907 12.5608C12.0071 11.4712 13.1474 9.55604 13.1474 7.37239Z" fill="#FFAD00"/>
<path d="M6.99995 4.34413C7.54061 4.34413 7.9789 3.90584 7.9789 3.36518C7.9789 2.82452 7.54061 2.38623 6.99995 2.38623C6.45929 2.38623 6.021 2.82452 6.021 3.36518C6.021 3.90584 6.45929 4.34413 6.99995 4.34413Z" fill="#FFDA16"/>
<path d="M4.25971 5.47938C4.80037 5.47938 5.23866 5.04109 5.23866 4.50043C5.23866 3.95978 4.80037 3.52148 4.25971 3.52148C3.71905 3.52148 3.28076 3.95978 3.28076 4.50043C3.28076 5.04109 3.71905 5.47938 4.25971 5.47938Z" fill="#F77F00"/>
<path d="M3.1247 8.21913C3.66536 8.21913 4.10365 7.78084 4.10365 7.24018C4.10365 6.69952 3.66536 6.26123 3.1247 6.26123C2.58404 6.26123 2.14575 6.69952 2.14575 7.24018C2.14575 7.78084 2.58404 8.21913 3.1247 8.21913Z" fill="#EF4452"/>
<path d="M9.73994 5.47938C10.2806 5.47938 10.7189 5.04109 10.7189 4.50043C10.7189 3.95978 10.2806 3.52148 9.73994 3.52148C9.19928 3.52148 8.76099 3.95978 8.76099 4.50043C8.76099 5.04109 9.19928 5.47938 9.73994 5.47938Z" fill="#4FC578"/>
<path d="M10.8752 8.21913C11.4158 8.21913 11.8541 7.78084 11.8541 7.24018C11.8541 6.69952 11.4158 6.26123 10.8752 6.26123C10.3345 6.26123 9.89624 6.69952 9.89624 7.24018C9.89624 7.78084 10.3345 8.21913 10.8752 8.21913Z" fill="#1E6EF4"/>
</g>
<defs>
<clipPath id="clip0_4422_2031">
<rect width="14" height="14" fill="white"/>
</clipPath>
</defs>
</svg>
