<svg width="14" height="14" viewBox="0 0 14 14" fill="none" xmlns="http://www.w3.org/2000/svg">
<g clip-path="url(#clip0_4422_2088)">
<path d="M6.5942 4.14961C5.7024 2.93441 3.88065 3.23436 2.85795 3.82481C1.42995 4.64941 2.9997 6.75711 2.9997 6.75711C2.5069 5.90346 3.50125 5.23741 4.1022 4.89056C4.70315 4.54371 5.44935 4.90071 5.7703 5.14711C6.0482 5.36061 6.44195 5.31791 6.6712 5.09146C6.94105 4.82511 6.80805 4.44081 6.5942 4.14961Z" fill="#F78700"/>
<path d="M6.48735 10.1331L5.5917 9.63156C4.9477 9.27106 4.26555 8.64421 3.90505 8.00021C3.66425 7.57041 3.4952 7.07726 3.4952 6.51586C3.4952 5.39306 3.596 4.48411 4.28165 4.07811C4.87875 3.72461 5.62705 3.99131 5.948 4.23771C6.2259 4.45121 6.61965 4.40851 6.8489 4.18206C7.11875 3.91571 6.98575 3.53141 6.7719 3.24021C5.8801 2.02501 4.1147 2.06246 3.092 2.65291C2.44345 3.02706 1.5184 4.13761 1.0438 5.30311C0.569198 6.46861 0.350098 7.15916 0.350098 7.75206C0.350098 8.75551 0.993748 9.82651 2.01925 10.1954C3.04475 10.5643 5.92525 11.6777 5.92525 11.6777C6.3519 11.8331 6.77015 11.7305 6.92555 11.3039C7.08095 10.8772 6.935 10.3816 6.4877 10.1328L6.48735 10.1331Z" fill="#FFC84D"/>
<path d="M7.40604 4.14961C8.29784 2.93441 10.1196 3.23436 11.1423 3.82481C12.5703 4.64941 11.0005 6.75711 11.0005 6.75711C11.4933 5.90346 10.499 5.23741 9.89804 4.89056C9.29709 4.54371 8.55089 4.90071 8.22994 5.14711C7.95204 5.36061 7.55829 5.31791 7.32904 5.09146C7.05919 4.82511 7.19219 4.44081 7.40604 4.14961Z" fill="#F78700"/>
<path d="M7.51286 10.1331L8.40851 9.63156C9.05251 9.27106 9.73466 8.64421 10.0952 8.00021C10.336 7.57041 10.505 7.07726 10.505 6.51586C10.505 5.39306 10.4042 4.48411 9.71856 4.07811C9.12146 3.72461 8.37316 3.99131 8.05221 4.23771C7.77431 4.45121 7.38056 4.40851 7.15131 4.18206C6.88146 3.91571 7.01446 3.53141 7.22831 3.24021C8.12011 2.02501 9.88551 2.06246 10.9082 2.65291C11.5568 3.02706 12.4818 4.13761 12.9564 5.30311C13.431 6.46861 13.6501 7.15916 13.6501 7.75206C13.6501 8.75551 13.0065 9.82651 11.981 10.1954C10.9555 10.5643 8.07496 11.6777 8.07496 11.6777C7.64831 11.8331 7.23006 11.7305 7.07466 11.3039C6.91926 10.8772 7.06521 10.3816 7.51251 10.1328L7.51286 10.1331Z" fill="#FFC84D"/>
</g>
<defs>
<clipPath id="clip0_4422_2088">
<rect width="14" height="14" fill="white"/>
</clipPath>
</defs>
</svg>
