<svg width="14" height="14" viewBox="0 0 14 14" fill="none" xmlns="http://www.w3.org/2000/svg">
<g clip-path="url(#clip0_4422_2149)">
<path d="M12.8478 9.04648H10.8448C10.6253 8.64713 9.53366 6.59053 9.31421 4.77403L8.94461 1.71363C8.84486 1.23028 8.37131 0.919483 7.88726 1.01958C7.45676 1.10848 7.16486 1.49243 7.17501 1.91628H7.17431H6.82641H6.82501C6.83551 1.49243 6.54326 1.10813 6.11276 1.01923C5.62871 0.919133 5.15516 1.22993 5.05541 1.71328L4.68581 4.77368C4.46636 6.59018 3.37506 8.64678 3.15526 9.04613H1.15221C0.88481 9.04613 0.88481 12.299 1.15221 12.299H4.42471C5.66931 12.299 6.69271 11.3526 6.81486 10.1406H7.18516C7.30731 11.3526 8.33071 12.299 9.57531 12.299H12.8478C13.1152 12.299 13.1152 9.04648 12.8478 9.04648Z" fill="#FFC84D"/>
<path d="M2.79817 8.75195H1.01772C0.824425 8.75195 0.667725 8.90865 0.667725 9.10195V12.2107C0.667725 12.404 0.824425 12.5607 1.01772 12.5607H2.79817C2.99147 12.5607 3.14817 12.404 3.14817 12.2107V9.10195C3.14817 8.90865 2.99147 8.75195 2.79817 8.75195Z" fill="#2F81F9"/>
<path d="M11.2016 12.5601H12.982C13.1753 12.5601 13.332 12.4034 13.332 12.2101V9.10136C13.332 8.90806 13.1753 8.75136 12.982 8.75136H11.2016C11.0083 8.75136 10.8516 8.90806 10.8516 9.10136V12.2101C10.8516 12.4034 11.0083 12.5601 11.2016 12.5601Z" fill="#2F81F9"/>
<path d="M8.02969 2.34875C7.57679 2.34875 7.20824 2.70995 7.17814 3.16845L7.18059 1.9165H6.82639L6.82464 3.19575C6.80784 2.7243 6.43229 2.3491 5.97029 2.3491C5.49429 2.3491 5.11279 2.7411 5.11279 3.2276V3.55485C5.11559 3.55065 5.11804 3.5454 5.12084 3.54085C5.16669 3.10125 5.52684 2.75755 5.96889 2.75755C6.43474 2.75755 6.81204 3.138 6.82394 3.61155L6.81449 10.1419H7.19039C7.19039 10.1419 7.17674 7.29005 7.17674 3.91045C7.17674 3.9073 7.17674 3.9045 7.17604 3.9017L7.17674 3.6021C7.19389 3.13345 7.56804 2.75825 8.03074 2.75825C8.47314 2.75825 8.83294 3.10195 8.87879 3.54155C8.88159 3.54575 8.88404 3.551 8.88684 3.55555V3.2283C8.88684 2.7418 8.50534 2.3498 8.02934 2.3498L8.02969 2.34875Z" fill="#F78700"/>
</g>
<defs>
<clipPath id="clip0_4422_2149">
<rect width="14" height="14" fill="white"/>
</clipPath>
</defs>
</svg>
