<svg width="14" height="14" viewBox="0 0 14 14" fill="none" xmlns="http://www.w3.org/2000/svg">
<g clip-path="url(#clip0_4422_2110)">
<path d="M7 13.125C10.3827 13.125 13.125 10.3827 13.125 7C13.125 3.61726 10.3827 0.875 7 0.875C3.61726 0.875 0.875 3.61726 0.875 7C0.875 10.3827 3.61726 13.125 7 13.125Z" fill="#F77F00"/>
<path d="M11.156 11.5169C8.66577 9.0263 8.66577 4.974 11.156 2.4834L11.5274 2.85475C9.24187 5.1406 9.24187 8.86005 11.5274 11.1455L11.156 11.5169Z" fill="#FFAD00"/>
<path d="M2.84401 11.5169L2.47266 11.1455C4.75816 8.8597 4.75816 5.14025 2.47266 2.85475L2.84401 2.4834C5.33426 4.974 5.33426 9.0263 2.84401 11.5169Z" fill="#FFAD00"/>
<path d="M7.26255 0.875H6.73755V13.125H7.26255V0.875Z" fill="#FFAD00"/>
<path d="M13.125 6.7373H0.875V7.2623H13.125V6.7373Z" fill="#FFAD00"/>
</g>
<defs>
<clipPath id="clip0_4422_2110">
<rect width="14" height="14" fill="white"/>
</clipPath>
</defs>
</svg>
