<svg width="14" height="14" viewBox="0 0 14 14" fill="none" xmlns="http://www.w3.org/2000/svg">
<g clip-path="url(#clip0_4422_2058)">
<path d="M6.53415 10.5325C6.53415 9.69561 7.0966 8.99771 7.8617 8.77511H2.64985C2.5221 8.77511 2.3982 8.76041 2.27815 8.73486C1.47665 8.90601 0.875 9.61686 0.875 10.4695C0.875 11.4498 1.6695 12.2443 2.64985 12.2443H8.24565C7.3003 12.2443 6.5338 11.4778 6.5338 10.5325H6.53415Z" fill="#FFC33A"/>
<path d="M8.06088 9.41548C7.51278 9.54113 7.12288 10.0819 7.23943 10.6888C7.33848 11.2043 7.81973 11.5592 8.34473 11.5592H13.125V9.38818H8.30448C8.22083 9.38818 8.13928 9.39763 8.06088 9.41548Z" fill="#E5E8EB"/>
<path d="M8.24568 8.77483H7.86173C7.09663 8.99708 6.53418 9.69533 6.53418 10.5322C6.53418 11.4775 7.30068 12.244 8.24603 12.244H12.4404C12.8184 12.244 13.125 11.9374 13.125 11.5594H8.34473C7.81973 11.5594 7.33848 11.2045 7.23943 10.689C7.12288 10.0821 7.51278 9.54133 8.06088 9.41568C8.13928 9.39783 8.22083 9.38838 8.30448 9.38838H13.125C13.125 9.08563 12.9301 8.83118 12.6599 8.73633C12.5906 8.75978 12.5178 8.77553 12.4404 8.77553H8.24603L8.24568 8.77483Z" fill="#FFA300"/>
<path d="M7.8617 8.77507H8.24565C7.3003 8.77507 6.5338 8.00858 6.5338 7.06323C6.5338 6.22638 7.09625 5.52848 7.86135 5.30588H2.64985C2.5221 5.30588 2.3982 5.29117 2.27815 5.26562C1.47665 5.43677 0.875 6.14763 0.875 7.00023C0.875 7.85283 1.47665 8.56367 2.27815 8.73482C2.3982 8.76037 2.5221 8.77507 2.64985 8.77507H7.8617Z" fill="#3182F6"/>
<path d="M8.06088 5.94673C7.51278 6.07238 7.12288 6.61278 7.23943 7.22003C7.33848 7.73558 7.81973 8.09048 8.34473 8.09048H13.125V5.91943H8.30448C8.22083 5.91943 8.13928 5.92888 8.06088 5.94673Z" fill="#E5E8EB"/>
<path d="M8.24568 5.30608H7.86173C7.09663 5.52833 6.53418 6.22658 6.53418 7.06343C6.53418 8.00878 7.30068 8.77528 8.24603 8.77528H12.4404C12.5178 8.77528 12.5906 8.75953 12.6599 8.73608C12.9297 8.64438 13.125 8.39168 13.125 8.09068H8.34473C7.81973 8.09068 7.33848 7.73578 7.23943 7.22023C7.12288 6.61298 7.51278 6.07258 8.06088 5.94693C8.13928 5.92908 8.22083 5.91963 8.30448 5.91963H13.125C13.125 5.61688 12.9301 5.36208 12.6599 5.26758C12.5906 5.29103 12.5178 5.30678 12.4404 5.30678H8.24603L8.24568 5.30608Z" fill="#1E6EF4"/>
<path d="M7.8617 5.30605H8.24565C7.3003 5.30605 6.5338 4.53955 6.5338 3.5942C6.5338 2.62225 7.2905 1.8351 8.24565 1.76895V1.75635H2.64985C1.6695 1.75635 0.875 2.55085 0.875 3.5312C0.875 4.3838 1.47665 5.09465 2.27815 5.2658C2.3982 5.29135 2.5221 5.30605 2.64985 5.30605H7.8617Z" fill="#23B169"/>
<path d="M8.0608 2.4775C7.74755 2.54925 7.4861 2.75645 7.3412 3.03435C7.33315 3.04975 7.3293 3.0676 7.3223 3.08335C7.26385 3.21005 7.225 3.3483 7.21975 3.49565C7.2194 3.5086 7.2229 3.5226 7.2229 3.53555C7.2229 3.60625 7.2257 3.67765 7.2397 3.7508C7.33875 4.26635 7.82 4.62125 8.345 4.62125H13.1253V2.4502H8.30475C8.2211 2.4502 8.1392 2.45965 8.0608 2.4775Z" fill="#E5E8EB"/>
<path d="M13.1249 4.62159H8.34459C7.81959 4.62159 7.33834 4.26669 7.23929 3.75114C7.22529 3.67799 7.22249 3.60659 7.22249 3.53589C7.22249 3.52294 7.21899 3.50894 7.21934 3.49599C7.22459 3.34829 7.26344 3.21039 7.32189 3.08369C7.32924 3.06794 7.33274 3.05009 7.34079 3.03469C7.48569 2.75679 7.74714 2.54959 8.06039 2.47784C8.13879 2.45999 8.22034 2.45054 8.30399 2.45054H13.1245C13.1245 2.06729 12.8141 1.75684 12.4308 1.75684H8.37189C8.32849 1.75684 8.28824 1.76664 8.24554 1.76944C7.29039 1.83559 6.53369 2.62274 6.53369 3.59469C6.53369 4.54004 7.30019 5.30654 8.24554 5.30654H12.4399C12.5173 5.30654 12.5901 5.29079 12.6594 5.26734C12.9292 5.17564 13.1245 4.92294 13.1245 4.62194L13.1249 4.62159Z" fill="#03905A"/>
</g>
<defs>
<clipPath id="clip0_4422_2058">
<rect width="14" height="14" fill="white"/>
</clipPath>
</defs>
</svg>
