<svg width="18" height="15" viewBox="0 0 18 15" fill="none" xmlns="http://www.w3.org/2000/svg">
<path d="M0 11.875V5.46875H17.7422V11.875C17.7422 12.6823 17.5469 13.2865 17.1562 13.6875C16.7656 14.0938 16.2214 14.2969 15.5234 14.2969H2.45312C1.63542 14.2969 1.02083 14.0938 0.609375 13.6875C0.203125 13.2865 0 12.6823 0 11.875ZM0 4.44531V2.35156C0 1.5651 0.1875 0.976562 0.5625 0.585938C0.9375 0.195312 1.46875 0 2.15625 0H4.38281C4.63802 0 4.85938 0.0182292 5.04688 0.0546875C5.23958 0.0911458 5.41406 0.151042 5.57031 0.234375C5.73177 0.317708 5.89844 0.432292 6.07031 0.578125L6.54688 0.96875C6.74479 1.13542 6.9349 1.25521 7.11719 1.32812C7.29948 1.39583 7.52344 1.42969 7.78906 1.42969H15.2891C16.1016 1.42969 16.7135 1.63281 17.125 2.03906C17.5365 2.44531 17.7422 3.04948 17.7422 3.85156V4.44531H0Z" fill="currentColor"/>
</svg>
