<svg width="16" height="17" viewBox="0 0 16 17" fill="none" xmlns="http://www.w3.org/2000/svg">
<path d="M0 8.55469C0 7.26823 0.1875 6.10156 0.5625 5.05469C0.942708 4.0026 1.48177 3.10156 2.17969 2.35156C2.8776 1.59635 3.71354 1.01562 4.6875 0.609375C5.66667 0.203125 6.75521 0 7.95312 0C9.14583 0 10.2292 0.203125 11.2031 0.609375C12.1823 1.01562 13.0208 1.59635 13.7188 2.35156C14.4219 3.10156 14.9609 4.0026 15.3359 5.05469C15.7161 6.10156 15.9062 7.26823 15.9062 8.55469C15.9062 9.34115 15.8333 10.1432 15.6875 10.9609C15.5417 11.7734 15.3307 12.5677 15.0547 13.3438C14.7786 14.1198 14.4505 14.8438 14.0703 15.5156C13.9766 15.6823 13.8438 15.7865 13.6719 15.8281C13.5052 15.875 13.3333 15.849 13.1562 15.75C12.9896 15.6615 12.8854 15.5312 12.8438 15.3594C12.8073 15.1927 12.8385 15.0182 12.9375 14.8359C13.4583 13.8828 13.862 12.862 14.1484 11.7734C14.4349 10.6797 14.5781 9.60677 14.5781 8.55469C14.5781 7.47135 14.4193 6.48698 14.1016 5.60156C13.7891 4.71615 13.3385 3.95573 12.75 3.32031C12.1667 2.67969 11.4688 2.1875 10.6562 1.84375C9.84375 1.5 8.94271 1.32812 7.95312 1.32812C6.95833 1.32812 6.05469 1.5 5.24219 1.84375C4.42969 2.1875 3.73177 2.67969 3.14844 3.32031C2.5651 3.95573 2.11458 4.71615 1.79688 5.60156C1.48438 6.48698 1.32812 7.47135 1.32812 8.55469C1.32812 9.60677 1.46875 10.6797 1.75 11.7734C2.03646 12.862 2.4401 13.8828 2.96094 14.8359C3.0599 15.0182 3.08854 15.1927 3.04688 15.3594C3.01042 15.5312 2.90885 15.6615 2.74219 15.75C2.5651 15.849 2.39062 15.875 2.21875 15.8281C2.05208 15.7865 1.92188 15.6823 1.82812 15.5156C1.44792 14.8438 1.11979 14.1198 0.84375 13.3438C0.572917 12.5677 0.364583 11.7734 0.21875 10.9609C0.0729167 10.1432 0 9.34115 0 8.55469ZM2.44531 15.3203L1.32812 11.5156C1.19271 11.0625 1.22135 10.6589 1.41406 10.3047C1.60677 9.94531 1.92969 9.70052 2.38281 9.57031C2.83594 9.44531 3.23698 9.47917 3.58594 9.67188C3.9401 9.85938 4.18229 10.1771 4.3125 10.625L5.42969 14.4375C5.5651 14.8854 5.53646 15.2865 5.34375 15.6406C5.15104 16 4.82812 16.2448 4.375 16.375C3.92188 16.5052 3.51823 16.474 3.16406 16.2812C2.8151 16.0885 2.57552 15.7682 2.44531 15.3203ZM13.4531 15.3203C13.3229 15.7682 13.0807 16.0885 12.7266 16.2812C12.3776 16.474 11.9766 16.5052 11.5234 16.375C11.0755 16.2448 10.7526 16.0026 10.5547 15.6484C10.362 15.2943 10.3333 14.8906 10.4688 14.4375L11.5859 10.625C11.7161 10.1771 11.9557 9.85938 12.3047 9.67188C12.6589 9.47917 13.0625 9.44531 13.5156 9.57031C13.9688 9.70052 14.2917 9.94271 14.4844 10.2969C14.6771 10.651 14.7057 11.0573 14.5703 11.5156L13.4531 15.3203Z" fill="currentColor"/>
</svg>
