<svg width="18" height="17" viewBox="0 0 18 17" fill="none" xmlns="http://www.w3.org/2000/svg">
<path d="M3.38281 16.4375C3.22135 16.3177 3.1224 16.1562 3.08594 15.9531C3.05469 15.75 3.08854 15.5078 3.1875 15.2266L4.82031 10.3672L0.648438 7.36719C0.403646 7.19531 0.234375 7.01823 0.140625 6.83594C0.046875 6.65365 0.03125 6.46615 0.09375 6.27344C0.15625 6.08594 0.278646 5.94792 0.460938 5.85938C0.643229 5.76562 0.885417 5.71875 1.1875 5.71875H6.30469L7.85938 0.867188C7.95312 0.580729 8.07031 0.364583 8.21094 0.21875C8.35677 0.0729167 8.52865 0 8.72656 0C8.92969 0 9.10156 0.0729167 9.24219 0.21875C9.38802 0.364583 9.50781 0.580729 9.60156 0.867188L11.1562 5.71875H16.2734C16.5755 5.71875 16.8177 5.76562 17 5.85938C17.1823 5.94792 17.3047 6.08594 17.3672 6.27344C17.4297 6.46615 17.4141 6.65365 17.3203 6.83594C17.2266 7.01823 17.0573 7.19531 16.8125 7.36719L12.6406 10.3672L14.2734 15.2266C14.3724 15.5078 14.4036 15.75 14.3672 15.9531C14.3359 16.1562 14.2396 16.3177 14.0781 16.4375C13.9167 16.5625 13.7344 16.6042 13.5312 16.5625C13.3281 16.526 13.1068 16.4219 12.8672 16.25L8.72656 13.2109L4.59375 16.25C4.35417 16.4219 4.13281 16.526 3.92969 16.5625C3.72656 16.6042 3.54427 16.5625 3.38281 16.4375Z" fill="currentColor"/>
</svg>
