<svg width="19" height="17" viewBox="0 0 19 17" fill="none" xmlns="http://www.w3.org/2000/svg">
<path d="M7.21875 15.1719H11.4375V10.5781C11.4375 10.401 11.3828 10.2578 11.2734 10.1484C11.1693 10.0391 11.026 9.98438 10.8438 9.98438H7.82031C7.63802 9.98438 7.49219 10.0391 7.38281 10.1484C7.27344 10.2578 7.21875 10.401 7.21875 10.5781V15.1719ZM2.4375 14.7109V8.50781L8.85938 3.125C9.17188 2.85938 9.48438 2.85938 9.79688 3.125L16.2188 8.50781V14.7109C16.2188 15.2526 16.0625 15.6745 15.75 15.9766C15.4427 16.2786 15.0156 16.4297 14.4688 16.4297H4.19531C3.64323 16.4297 3.21094 16.2786 2.89844 15.9766C2.59115 15.6745 2.4375 15.2526 2.4375 14.7109ZM0.671875 8.34375C0.463542 8.34375 0.299479 8.28125 0.179688 8.15625C0.0598958 8.02604 0 7.88021 0 7.71875C0 7.51562 0.0833333 7.34635 0.25 7.21094L8.39062 0.375C8.68229 0.125 8.99479 0 9.32812 0C9.66146 0 9.97396 0.125 10.2656 0.375L18.4062 7.21094C18.5729 7.34635 18.6562 7.51562 18.6562 7.71875C18.6562 7.88021 18.5964 8.02604 18.4766 8.15625C18.362 8.28125 18.1979 8.34375 17.9844 8.34375C17.875 8.34375 17.7734 8.31771 17.6797 8.26562C17.5911 8.21354 17.5078 8.15625 17.4297 8.09375L9.60156 1.52344C9.51823 1.45052 9.42708 1.41406 9.32812 1.41406C9.22917 1.41406 9.13802 1.45052 9.05469 1.52344L1.23438 8.09375C1.15104 8.15625 1.0625 8.21354 0.96875 8.26562C0.880208 8.31771 0.78125 8.34375 0.671875 8.34375ZM14.4141 4.19531V2.32812C14.4141 2.15625 14.4661 2.02083 14.5703 1.92188C14.6745 1.81771 14.8099 1.76562 14.9766 1.76562H15.8125C15.9844 1.76562 16.1198 1.81771 16.2188 1.92188C16.3229 2.02083 16.375 2.15625 16.375 2.32812V5.85156L14.4141 4.19531Z" fill="currentColor"/>
</svg>
