<svg width="16" height="16" viewBox="0 0 16 16" fill="none" xmlns="http://www.w3.org/2000/svg">
<path d="M7.96875 15.9375C6.86979 15.9375 5.83854 15.7292 4.875 15.3125C3.91146 14.901 3.0651 14.3307 2.33594 13.6016C1.60677 12.8724 1.03385 12.026 0.617188 11.0625C0.205729 10.099 0 9.06771 0 7.96875C0 6.86979 0.205729 5.83854 0.617188 4.875C1.03385 3.91146 1.60677 3.0651 2.33594 2.33594C3.0651 1.60156 3.91146 1.02865 4.875 0.617188C5.83854 0.205729 6.86979 0 7.96875 0C9.06771 0 10.099 0.205729 11.0625 0.617188C12.026 1.02865 12.8724 1.60156 13.6016 2.33594C14.3307 3.0651 14.901 3.91146 15.3125 4.875C15.7292 5.83854 15.9375 6.86979 15.9375 7.96875C15.9375 9.06771 15.7292 10.099 15.3125 11.0625C14.901 12.026 14.3307 12.8724 13.6016 13.6016C12.8724 14.3307 12.026 14.901 11.0625 15.3125C10.099 15.7292 9.06771 15.9375 7.96875 15.9375ZM7.96875 14.6094C8.88542 14.6094 9.74479 14.4375 10.5469 14.0938C11.349 13.75 12.0547 13.2734 12.6641 12.6641C13.2734 12.0547 13.75 11.349 14.0938 10.5469C14.4375 9.74479 14.6094 8.88542 14.6094 7.96875C14.6094 7.05208 14.4375 6.19271 14.0938 5.39062C13.75 4.58333 13.2734 3.8776 12.6641 3.27344C12.0547 2.66406 11.349 2.1875 10.5469 1.84375C9.74479 1.5 8.88542 1.32812 7.96875 1.32812C7.05208 1.32812 6.19271 1.5 5.39062 1.84375C4.58854 2.1875 3.88281 2.66406 3.27344 3.27344C2.66406 3.8776 2.1875 4.58333 1.84375 5.39062C1.5 6.19271 1.32812 7.05208 1.32812 7.96875C1.32812 8.88542 1.5 9.74479 1.84375 10.5469C2.1875 11.349 2.66406 12.0547 3.27344 12.6641C3.88281 13.2734 4.58854 13.75 5.39062 14.0938C6.19271 14.4375 7.05208 14.6094 7.96875 14.6094ZM13.3125 13.1172C12.8385 13.5807 12.2812 13.9766 11.6406 14.3047C11.0052 14.6328 10.362 14.8828 9.71094 15.0547C9.0599 15.2318 8.47917 15.3203 7.96875 15.3203C7.46354 15.3203 6.88281 15.2318 6.22656 15.0547C5.57552 14.8828 4.92969 14.6328 4.28906 14.3047C3.64844 13.9766 3.09375 13.5807 2.625 13.1172L2.64844 13.0234C2.77865 12.6432 3.08333 12.2682 3.5625 11.8984C4.04167 11.5286 4.65625 11.224 5.40625 10.9844C6.16146 10.7448 7.01562 10.625 7.96875 10.625C8.92708 10.625 9.78125 10.7448 10.5312 10.9844C11.2865 11.224 11.901 11.5286 12.375 11.8984C12.8542 12.2682 13.1589 12.6458 13.2891 13.0312L13.3125 13.1172ZM7.96875 9.29688C7.46875 9.29167 7.01562 9.16146 6.60938 8.90625C6.20833 8.64583 5.88802 8.29427 5.64844 7.85156C5.41406 7.40885 5.29427 6.90885 5.28906 6.35156C5.28385 5.82552 5.40104 5.34375 5.64062 4.90625C5.88021 4.46875 6.20312 4.11979 6.60938 3.85938C7.01562 3.59375 7.46875 3.46094 7.96875 3.46094C8.46875 3.46094 8.91927 3.59375 9.32031 3.85938C9.72656 4.11979 10.0495 4.46875 10.2891 4.90625C10.5286 5.34375 10.6484 5.82552 10.6484 6.35156C10.6484 6.90885 10.5286 7.41146 10.2891 7.85938C10.0547 8.30729 9.73438 8.66146 9.32812 8.92188C8.92188 9.17708 8.46875 9.30208 7.96875 9.29688Z" fill="currentColor"/>
</svg>
