<svg width="9" height="16" viewBox="0 0 9 16" fill="none" xmlns="http://www.w3.org/2000/svg">
<path d="M8.5957 7.62891C8.5957 7.74023 8.57227 7.8457 8.52539 7.94531C8.48438 8.03906 8.42285 8.12695 8.34082 8.20898L1.37988 15.0205C1.22168 15.1787 1.02832 15.2578 0.799805 15.2578C0.65332 15.2578 0.518555 15.2227 0.395508 15.1523C0.272461 15.082 0.175781 14.9854 0.105469 14.8623C0.0351562 14.7451 0 14.6104 0 14.458C0 14.2412 0.0761719 14.0508 0.228516 13.8867L6.62695 7.62891L0.228516 1.37109C0.0761719 1.20703 0 1.0166 0 0.799805C0 0.647461 0.0351562 0.512695 0.105469 0.395508C0.175781 0.272461 0.272461 0.175781 0.395508 0.105469C0.518555 0.0351562 0.65332 0 0.799805 0C1.02832 0 1.22168 0.0761719 1.37988 0.228516L8.34082 7.04883C8.42285 7.13086 8.48438 7.22168 8.52539 7.32129C8.57227 7.41504 8.5957 7.51758 8.5957 7.62891Z" fill="black"/>
</svg>
