<svg width="18" height="17" viewBox="0 0 18 17" fill="none" xmlns="http://www.w3.org/2000/svg">
<path d="M3.39062 16.3672C3.11979 16.3672 2.91406 16.3021 2.77344 16.1719C2.63281 16.0469 2.5599 15.888 2.55469 15.6953C2.54948 15.5078 2.61458 15.3229 2.75 15.1406C2.86979 14.9896 3.01302 14.7943 3.17969 14.5547C3.34635 14.3203 3.51302 14.0729 3.67969 13.8125C3.84635 13.5521 3.98958 13.3073 4.10938 13.0781C3.28646 12.6979 2.5651 12.2031 1.94531 11.5938C1.33073 10.9844 0.851562 10.2969 0.507812 9.53125C0.169271 8.76562 0 7.95573 0 7.10156C0 6.11719 0.226562 5.19531 0.679688 4.33594C1.13802 3.47656 1.77083 2.72396 2.57812 2.07812C3.39062 1.42708 4.33333 0.919271 5.40625 0.554688C6.47917 0.184896 7.63021 0 8.85938 0C10.0885 0 11.2396 0.184896 12.3125 0.554688C13.3854 0.919271 14.3255 1.42708 15.1328 2.07812C15.9453 2.72396 16.5781 3.47656 17.0312 4.33594C17.4896 5.19531 17.7188 6.11719 17.7188 7.10156C17.7188 7.91927 17.5625 8.69271 17.25 9.42188C16.9427 10.1458 16.5026 10.8047 15.9297 11.3984C15.362 11.9922 14.6823 12.5026 13.8906 12.9297C13.1042 13.3516 12.2292 13.6719 11.2656 13.8906C10.3021 14.1094 9.27604 14.2031 8.1875 14.1719C7.66146 14.5521 7.09375 14.9089 6.48438 15.2422C5.875 15.5755 5.29427 15.8464 4.74219 16.0547C4.1901 16.263 3.73958 16.3672 3.39062 16.3672ZM4.21094 15.0703C4.44531 14.9714 4.74219 14.8203 5.10156 14.6172C5.46094 14.4141 5.83333 14.1875 6.21875 13.9375C6.60417 13.6927 6.95573 13.4557 7.27344 13.2266C7.41927 13.112 7.5599 13.0286 7.69531 12.9766C7.83594 12.9193 7.98698 12.8906 8.14844 12.8906C8.30469 12.8958 8.44271 12.901 8.5625 12.9062C8.68229 12.9062 8.78125 12.9062 8.85938 12.9062C9.91146 12.9062 10.8958 12.7552 11.8125 12.4531C12.7292 12.151 13.5312 11.7344 14.2188 11.2031C14.9115 10.6719 15.4531 10.0547 15.8438 9.35156C16.2344 8.64844 16.4297 7.89844 16.4297 7.10156C16.4297 6.29948 16.2344 5.54948 15.8438 4.85156C15.4531 4.14844 14.9115 3.53125 14.2188 3C13.5312 2.46354 12.7292 2.04427 11.8125 1.74219C10.8958 1.4401 9.91146 1.28906 8.85938 1.28906C7.80729 1.28906 6.82292 1.4401 5.90625 1.74219C4.98958 2.04427 4.1849 2.46354 3.49219 3C2.80469 3.53125 2.26562 4.14844 1.875 4.85156C1.48958 5.54948 1.29688 6.29948 1.29688 7.10156C1.29688 7.79427 1.44792 8.45312 1.75 9.07812C2.05208 9.70312 2.48958 10.276 3.0625 10.7969C3.64062 11.3125 4.33854 11.7604 5.15625 12.1406C5.40625 12.2604 5.55208 12.4062 5.59375 12.5781C5.63542 12.75 5.60156 12.9375 5.49219 13.1406C5.35677 13.3906 5.15625 13.6927 4.89062 14.0469C4.625 14.4062 4.38281 14.7214 4.16406 14.9922C4.14323 15.0182 4.13802 15.0391 4.14844 15.0547C4.15885 15.0755 4.17969 15.0807 4.21094 15.0703Z" fill="black"/>
</svg>
