<svg width="13" height="22" viewBox="0 0 13 22" fill="none" xmlns="http://www.w3.org/2000/svg">
<path d="M0.395752 11.1865C0.395752 10.8813 0.505615 10.6006 0.737549 10.3809L10.4177 0.908203C10.6252 0.700684 10.8938 0.59082 11.2112 0.59082C11.8459 0.59082 12.3342 1.06689 12.3342 1.70166C12.3342 2.00684 12.2 2.2876 12.0046 2.49512L3.11792 11.1865L12.0046 19.8779C12.2 20.0854 12.3342 20.354 12.3342 20.6714C12.3342 21.3062 11.8459 21.7822 11.2112 21.7822C10.8938 21.7822 10.6252 21.6724 10.4177 21.4526L0.737549 11.9922C0.505615 11.7603 0.395752 11.4917 0.395752 11.1865Z" fill="#CFCFCF"/>
</svg>
