<svg width="21" height="16" viewBox="0 0 21 16" fill="none" xmlns="http://www.w3.org/2000/svg">
<path d="M2.63006 16C0.879479 16 0 15.1274 0 13.3991V4.61458C0 2.88621 0.879479 2.02202 2.63006 2.02202H4.96696C5.62029 2.02202 5.82969 1.87939 6.20661 1.46827L6.87669 0.713162C7.29549 0.251704 7.72266 0 8.58539 0H11.9274C12.7901 0 13.2173 0.251704 13.6361 0.713162L14.3062 1.46827C14.6831 1.88778 14.8841 2.02202 15.5458 2.02202H17.9414C19.6836 2.02202 20.5714 2.88621 20.5714 4.61458V13.3991C20.5714 15.1274 19.6836 16 17.9414 16H2.63006ZM17.355 6.43524C17.933 6.43524 18.402 5.96539 18.402 5.39486C18.402 4.81594 17.933 4.35448 17.355 4.35448C16.7855 4.35448 16.3164 4.81594 16.3164 5.39486C16.3164 5.96539 16.7855 6.43524 17.355 6.43524ZM10.2857 13.5249C12.8153 13.5249 14.8506 11.4945 14.8506 8.9355C14.8506 6.3849 12.8236 4.35448 10.2857 4.35448C7.74779 4.35448 5.71242 6.3849 5.71242 8.9355C5.71242 11.4945 7.74779 13.5249 10.2857 13.5249ZM10.2857 12.2496C8.46813 12.2496 6.9772 10.7813 6.9772 8.9355C6.9772 7.09806 8.45975 5.6214 10.2857 5.6214C12.1117 5.6214 13.5859 7.09806 13.5859 8.9355C13.5859 10.7813 12.1117 12.2496 10.2857 12.2496Z" fill="#9D9D9D"/>
</svg>
